<?xml version="1.0" standalone="no"?><!DOCTYPE svg PUBLIC "-//W3C//DTD SVG 1.1//EN" "http://www.w3.org/Graphics/SVG/1.1/DTD/svg11.dtd"><svg t="1609919152214" class="icon" viewBox="0 0 1024 1024" version="1.1" xmlns="http://www.w3.org/2000/svg" p-id="9003" xmlns:xlink="http://www.w3.org/1999/xlink" width="16" height="16"><defs><style type="text/css"></style></defs><path d="M968.533333 341.333333L802.133333 83.2c-14.933333-25.6-42.666667-40.533333-74.666666-40.533333H430.933333c-29.866667 0-61.866667 17.066667-76.8 42.666666L53.333333 595.2c-14.933333 27.733333-14.933333 61.866667 2.133334 87.466667l166.4 258.133333c14.933333 25.6 42.666667 40.533333 74.666666 40.533333h296.533334c29.866667 0 61.866667-17.066667 76.8-42.666666l300.8-509.866667c14.933333-27.733333 14.933333-61.866667-2.133334-87.466667zM631.466667 917.333333c-8.533333 12.8-21.333333 21.333333-36.266667 21.333334h-298.666667c-14.933333 0-27.733333-8.533333-36.266666-19.2L93.866667 661.333333c-8.533333-12.8-8.533333-29.866667 0-44.8l119.466666-204.8c2.133333 10.666667 6.4 21.333333 10.666667 32L375.466667 682.666667c14.933333 25.6 42.666667 40.533333 76.8 40.533333h2.133333l270.933333-4.266667c10.666667 0 21.333333-2.133333 29.866667-6.4L631.466667 917.333333z m149.333333-262.4l-4.266667 8.533334c-10.666667 19.2-32 34.133333-57.6 34.133333l-270.933333 4.266667h-2.133333c-23.466667 0-42.666667-12.8-57.6-32l-149.333334-238.933334c-12.8-19.2-12.8-42.666667-2.133333-64l4.266667-8.533333c10.666667-19.2 32-34.133333 57.6-34.133333l273.066666-4.266667h2.133334c23.466667 0 42.666667 12.8 57.6 32l149.333333 238.933333c10.666667 21.333333 12.8 44.8 0 64z m149.333333-247.466666L810.666667 612.266667c-2.133333-10.666667-6.4-21.333333-10.666667-32L648.533333 341.333333c-14.933333-25.6-42.666667-40.533333-76.8-40.533333h-2.133333l-270.933333 4.266667c-10.666667 0-21.333333 2.133333-29.866667 6.4L392.533333 106.666667c8.533333-12.8 21.333333-21.333333 36.266667-21.333334H725.333333c14.933333 0 27.733333 8.533333 36.266667 19.2L930.133333 362.666667c8.533333 14.933333 8.533333 29.866667 0 44.8z" p-id="9004" fill="#ffffff"></path></svg>